<svg width="1200" height="800" viewBox="0 0 1200 800" fill="none" xmlns="http://www.w3.org/2000/svg">
  <rect width="1200" height="800" fill="#1A1A1A"/>
  <path d="M0 0H1200V800H0V0Z" fill="url(#paint0_linear)"/>
  <rect x="246" y="208" width="236" height="344" rx="10" fill="#F5F0E8" fill-opacity="0.18"/>
  <rect x="515" y="148" width="184" height="404" rx="10" fill="#F5F0E8" fill-opacity="0.22"/>
  <rect x="732" y="258" width="228" height="294" rx="10" fill="#F5F0E8" fill-opacity="0.16"/>
  <path d="M287 262H441M287 331H441M287 400H441M550 223H664M550 292H664M550 361H664M768 317H925M768 386H925" stroke="#F5F0E8" stroke-opacity="0.32" stroke-width="18" stroke-linecap="round"/>
  <path d="M0 492C153 450 335 468 547 546C790 636 1008 638 1200 552V800H0V492Z" fill="#0D0D0D" fill-opacity="0.6"/>
  <defs>
    <linearGradient id="paint0_linear" x1="102" y1="66" x2="1102" y2="744" gradientUnits="userSpaceOnUse">
      <stop stop-color="#C9805C"/>
      <stop offset="0.52" stop-color="#1A1A1A"/>
      <stop offset="1" stop-color="#000000"/>
    </linearGradient>
  </defs>
</svg>
